<?xml version="1.0" encoding="utf-8"?>
<!-- Generator: Adobe Illustrator 24.1.2, SVG Export Plug-In . SVG Version: 6.00 Build 0)  -->
<svg version="1.1" id="レイヤー_1" xmlns="http://www.w3.org/2000/svg" xmlns:xlink="http://www.w3.org/1999/xlink" x="0px"
	 y="0px" viewBox="0 0 48 48" style="enable-background:new 0 0 48 48;" xml:space="preserve">
<rect style="fill:#FFFFFF;" width="48" height="48"/>
<g>
	<polygon points="29.16,32.15 31.33,26.71 25.9,26.71 29.16,18.56 23.73,18.56 20.47,26.71 15.03,26.71 18.3,18.56 12.86,18.56 
		9.61,26.71 4.17,26.71 2,32.15 7.44,32.15 3.09,43.01 8.52,43.01 12.86,32.15 18.3,32.15 13.95,43.01 19.38,43.01 23.73,32.15 	"/>
	<polygon points="39.48,18.56 36.51,23.38 33.51,15.85 43.83,15.85 46,10.42 42.2,10.42 38.94,2.27 33.51,2.27 36.77,10.42 
		31.33,10.42 30.24,7.7 30.24,7.7 28.07,2.27 22.64,2.27 25.9,10.42 10.69,10.42 8.52,15.85 28.07,15.85 33.22,28.71 22.72,45.72 
		28.66,45.72 35.56,34.57 40.02,45.72 40.02,45.72 42.74,38.94 42.74,38.94 44.37,34.86 41.11,34.86 38.86,29.23 45.46,18.56 	"/>
</g>
</svg>
