<?xml version="1.0" encoding="utf-8"?>
<!-- Generator: Adobe Illustrator 24.1.2, SVG Export Plug-In . SVG Version: 6.00 Build 0)  -->
<svg version="1.1" id="レイヤー_1" xmlns="http://www.w3.org/2000/svg" xmlns:xlink="http://www.w3.org/1999/xlink" x="0px"
	 y="0px" viewBox="0 0 74.2 28" style="enable-background:new 0 0 74.2 28;" xml:space="preserve">
<g id="レイヤー_1_1_">
	<g>
		<g>
			<polygon points="28,10.5 24.15,10.5 22.24,13.6 20.3,8.75 26.95,8.75 28.35,5.25 25.9,5.25 23.8,0 20.3,0 22.4,5.25 18.9,5.25 
				16.8,0 13.3,0 15.4,5.25 5.6,5.25 4.2,8.75 16.8,8.75 17.5,10.5 20.12,17.04 13.35,28 17.18,28 21.62,20.81 24.5,28 27.3,21 
				25.2,21 23.75,17.37 			"/>
			<polygon points="11.9,15.75 8.4,15.75 10.5,10.5 7,10.5 4.9,15.75 1.4,15.75 0,19.25 3.5,19.25 0.7,26.25 4.2,26.25 7,19.25 
				10.5,19.25 7.7,26.25 11.2,26.25 14,19.25 17.5,19.25 18.9,15.75 15.4,15.75 17.5,10.5 14,10.5 			"/>
		</g>
		<polygon points="40.9,10.5 37.05,10.5 33.91,15.59 31.85,12.25 28,12.25 31.99,18.7 26.25,28 30.08,28 33.91,21.8 35.58,24.5 
			39.41,24.5 35.83,18.7 		"/>
		<polygon points="54.25,10.5 52.85,14 50.05,21 53.55,21 56.35,14 59.85,14 58.45,17.5 56.7,17.5 55.3,21 57.05,21 54.25,28 
			57.75,28 64.75,10.5 		"/>
		<polygon points="48.3,21 37.8,21 39.2,17.5 49.7,17.5 		"/>
		<polygon points="72.8,21 62.3,21 63.7,17.5 74.2,17.5 		"/>
	</g>
</g>
<g id="レイヤー_2_1_" style="display:none;">
	
		<rect x="74.77" y="180.5" style="display:inline;fill:none;stroke:#00FFFF;stroke-width:1.0157;stroke-miterlimit:10;" width="229.01" height="229.01"/>
	
		<rect x="303.78" y="180.5" style="display:inline;fill:none;stroke:#00FFFF;stroke-width:1.3166;stroke-miterlimit:10;" width="370.99" height="229.01"/>
</g>
</svg>
