<?xml version="1.0" encoding="utf-8"?>
<!-- Generator: Adobe Illustrator 24.1.2, SVG Export Plug-In . SVG Version: 6.00 Build 0)  -->
<svg version="1.1" id="レイヤー_1" xmlns="http://www.w3.org/2000/svg" xmlns:xlink="http://www.w3.org/1999/xlink" x="0px"
	 y="0px" viewBox="0 0 74.2 28" style="enable-background:new 0 0 74.2 28;" xml:space="preserve">
<style type="text/css">
	.st0{fill:#FFFFFF;}
</style>
<g>
	<path class="st0" d="M28,10.5h-3.9l-1.9,3.1l-1.9-4.9h6.6l1.4-3.5h-2.5L23.8,0h-3.5l2.1,5.2h-3.5L16.8,0h-3.5l2.1,5.2H5.6L4.2,8.8
		h12.6l0.7,1.8l2.6,6.5l-6.8,11h3.8l4.4-7.2l2.9,7.2l2.8-7h-2.1l-1.5-3.6L28,10.5z"/>
	<path class="st0" d="M11.9,15.8H8.4l2.1-5.2H7l-2.1,5.2H1.4L0,19.2h3.5l-2.8,7h3.5l2.8-7h3.5l-2.8,7h3.5l2.8-7h3.5l1.4-3.5h-3.5
		l2.1-5.2H14L11.9,15.8z"/>
	<path class="st0" d="M40.9,10.5h-3.8l-3.1,5.1l-2.1-3.3H28l4,6.5L26.3,28h3.8l3.8-6.2l1.7,2.7h3.8l-3.6-5.8L40.9,10.5z"/>
	<path class="st0" d="M54.2,10.5L52.8,14L50,21h3.5l2.8-7h3.5l-1.4,3.5h-1.8L55.3,21H57l-2.8,7h3.5l7-17.5H54.2z"/>
	<path class="st0" d="M48.3,21H37.8l1.4-3.5h10.5L48.3,21z"/>
	<path class="st0" d="M72.8,21H62.3l1.4-3.5h10.5L72.8,21z"/>
</g>
</svg>
